#!OML:ASF E:\Style4\Style4.ASF
:FULLY-SPECIFIED
:DEGREES
3378
root -0.170976 17.8718 -1.2784 4.60695 1.64705 2.34431
lowerback 10.9396 3.43083 0.848075
upperback 6.08547 4.61693 0.470877
thorax 0.250415 2.32227 -0.468588
lowerneck 5.0705 -16.3596 -3.82985
upperneck 14.0717 -21.9676 1.13353
head 4.4584 -10.9144 0.386681
rclavicle 6.44062e-014 -1.51076e-014
rhumerus 76.5169 2.70166 -1503.35
rradius 36.4974
rwrist 1459.58
rhand -43.6566 49.7828
rfingers 7.12502
rthumb -16.4906 20.4636
lclavicle 6.44062e-014 -1.51076e-014
lhumerus 73.9298 15.1694 42.0916
lradius 123.115
lwrist 38.7215
lhand -12.0231 24.3879
lfingers 7.12502
lthumb 14.0347 53.8941
rfemur -20.3452 -5.85937 17.6615
rtibia 32.7687
rfoot -15.8554 -17.6169
rtoes -8.7517
lfemur -20.8957 1.23174 -20.8559
ltibia 32.2356
lfoot -14.2447 11.7849
ltoes -20.2823
3379
root -0.169393 17.86 -1.30322 4.58613 1.60037 2.37024
lowerback 11.0828 3.48636 1.10148
upperback 6.25696 4.71203 0.374751
thorax 0.382712 2.37915 -0.719344
lowerneck 4.78018 -16.4137 -3.64998
upperneck 14.5595 -22.0266 1.00033
head 4.65333 -10.9279 0.266727
rclavicle 4.85035e-014 -2.62396e-014
rhumerus 76.1296 2.8223 -1503.41
rradius 36.5888
rwrist 1459.76
rhand -43.7616 50.6045
rfingers 7.12502
rthumb -16.5917 21.2937
lclavicle 4.85035e-014 -2.62396e-014
lhumerus 74.155 14.821 42.1363
lradius 123.249
lwrist 38.553
lhand -11.9095 24.3716
lfingers 7.12502
lthumb 14.1442 53.8702
rfemur -20.5938 -5.93304 17.6328
rtibia 33.0499
rfoot -15.8068 -17.5467
rtoes -9.15123
lfemur -21.2447 1.24249 -20.8711
ltibia 32.7596
lfoot -14.3372 11.6599
ltoes -19.8917
3380
root -0.167512 17.8472 -1.32909 4.54564 1.59395 2.33696
lowerback 11.2446 3.52747 1.34201
upperback 6.39568 4.78849 0.346826
thorax 0.46475 2.42536 -0.89367
lowerneck 4.65985 -16.4341 -3.55017
upperneck 15.0128 -22.0499 0.927776
head 4.82425 -10.9267 0.193405
rclavicle -7.15625e-015 -2.14687e-014
rhumerus 75.7093 2.99751 -1503.32
rradius 36.5671
rwrist 1459.72
rhand -43.7714 51.5031
rfingers 7.12502
rthumb -16.6011 22.1932
lclavicle -7.15625e-015 -2.14687e-014
lhumerus 74.3192 14.4552 42.2403
lradius 123.343
lwrist 38.4171
lhand -11.6627 24.4237
lfingers 7.12502
lthumb 14.3821 53.9054
rfemur -20.8294 -6.07336 17.6691
rtibia 33.3438
rfoot -15.801 -17.4293
rtoes -9.35378
lfemur -21.5898 1.23864 -20.7994
ltibia 33.2441
lfoot -14.3864 11.4676
ltoes -19.471
3381
root -0.167873 17.8354 -1.35741 4.53506 1.5517 2.22983
lowerback 11.4363 3.5446 1.48781
upperback 6.4578 4.82662 0.414841
thorax 0.433741 2.44688 -0.918699
lowerneck 4.78336 -16.3738 -3.52583
upperneck 15.2918 -21.965 0.866956
head 4.89308 -10.8811 0.171559
rclavicle 5.725e-014 -1.98785e-014
rhumerus 75.2738 3.38446 -1503.34
rradius 36.4632
rwrist 1459.64
rhand -43.7658 52.3054
rfingers 7.12502
rthumb -16.5957 22.9949
lclavicle 5.725e-014 -1.98785e-014
lhumerus 74.3017 14.1203 42.3516
lradius 123.324
lwrist 38.3115
lhand -11.2493 24.5023
lfingers 7.12502
lthumb 14.7804 53.9552
rfemur -21.1025 -6.0956 17.7957
rtibia 33.6443
rfoot -15.9188 -17.2779
rtoes -8.94157
lfemur -21.9759 1.21666 -20.6072
ltibia 33.6904
lfoot -14.4583 11.1326
ltoes -17.7788
3382
root -0.169772 17.8246 -1.38614 4.56207 1.49264 2.27198
lowerback 11.5386 3.53009 1.37159
upperback 6.57606 4.79665 0.496431
thorax 0.484605 2.42837 -0.769273
lowerneck 4.88457 -16.2708 -3.50528
upperneck 15.4194 -21.8114 0.747824
head 4.89783 -10.8067 0.143175
rclavicle -1.90833e-014 1.90833e-014
rhumerus 74.941 3.91937 -1504.03
rradius 36.2344
rwrist 1460.25
rhand -43.6556 53.0548
rfingers 7.12502
rthumb -16.4896 23.7355
lclavicle -1.90833e-014 1.90833e-014
lhumerus 74.1791 13.9719 42.4994
lradius 123.339
lwrist 38.3998
lhand -10.8837 24.7551
lfingers 7.12502
lthumb 15.1325 54.1819
rfemur -21.445 -6.09196 17.7769
rtibia 33.9459
rfoot -15.8227 -17.3099
rtoes -9.43273
lfemur -22.3657 1.1928 -20.5843
ltibia 34.114
lfoot -14.5265 10.9481
ltoes -17.0573
3383
root -0.170484 17.8142 -1.41168 4.57825 1.43244 2.36575
lowerback 11.6196 3.56725 1.33659
upperback 6.74643 4.84109 0.495111
thorax 0.617761 2.45167 -0.75385
lowerneck 5.02952 -16.2671 -3.5309
upperneck 15.4306 -21.8096 0.809576
head 4.88806 -10.8038 0.177932
rclavicle -6.04305e-014 1.19271e-014
rhumerus 74.559 4.22818 -1504.87
rradius 35.9279
rwrist 1461.17
rhand -43.604 53.855
rfingers 7.12502
rthumb -16.4399 24.5316
lclavicle -6.04305e-014 1.19271e-014
lhumerus 74.3556 13.8565 42.7852
lradius 123.39
lwrist 38.8316
lhand -10.4686 25.0628
lfingers 7.12502
lthumb 15.5323 54.459
rfemur -21.7834 -6.09802 17.6895
rtibia 34.2547
rfoot -15.66 -17.3769
rtoes -10.3503
lfemur -22.6831 1.14366 -20.6293
ltibia 34.5193
lfoot -14.5658 10.736
ltoes -16.5415
3384
root -0.171282 17.801 -1.43639 4.5427 1.3489 2.45999
lowerback 11.8113 3.67367 1.42026
upperback 6.94056 4.98865 0.41127
thorax 0.736975 2.53162 -0.906202
lowerneck 4.90335 -16.3762 -3.3322
upperneck 15.6509 -21.9381 0.703741
head 4.9584 -10.8537 0.091675
rclavicle -6.12257e-014 6.36111e-015
rhumerus 74.2129 4.28252 -1505.19
rradius 35.5171
rwrist 1461.68
rhand -43.9729 54.1791
rfingers 7.12502
rthumb -16.7951 24.8855
lclavicle -6.12257e-014 6.36111e-015
lhumerus 74.7805 13.4992 43.0275
lradius 123.442
lwrist 38.9805
lhand -10.1452 25.4217
lfingers 7.12502
lthumb 15.8439 54.7935
rfemur -22.0034 -6.04231 17.5696
rtibia 34.5888
rfoot -15.8955 -17.2225
rtoes -9.73147
lfemur -22.9171 1.09476 -20.6812
ltibia 34.8944
lfoot -14.5227 10.5697
ltoes -16.6449
3385
root -0.171371 17.7884 -1.46161 4.53425 1.26758 2.48797
lowerback 11.983 3.7466 1.53094
upperback 7.11262 5.09502 0.363455
thorax 0.842991 2.5911 -1.03182
lowerneck 4.70666 -16.4105 -3.0772
upperneck 15.9719 -21.957 0.498849
head 5.05474 -10.8486 -0.0387112
rclavicle -1.98785e-014 -1.74931e-014
rhumerus 73.9705 4.41626 -1505.38
rradius 34.9421
rwrist 1461.96
rhand -44.1097 54.6575
rfingers 7.12502
rthumb -16.9268 25.3751
lclavicle -1.98785e-014 -1.74931e-014
lhumerus 74.9407 13.0433 43.0178
lradius 123.52
lwrist 38.7582
lhand -10.176 25.6295
lfingers 7.12502
lthumb 15.8141 55.0036
rfemur -22.2524 -6.05914 17.539
rtibia 34.9385
rfoot -16.1863 -16.9729
rtoes -8.78483
lfemur -23.1677 1.0426 -20.6634
ltibia 35.2349
lfoot -14.5003 10.4148
ltoes -16.7042
3386
root -0.171844 17.7753 -1.48772 4.53486 1.25365 2.5775
lowerback 12.0994 3.74576 1.49972
upperback 7.25164 5.09076 0.393481
thorax 0.921004 2.58902 -0.985155
lowerneck 4.79527 -16.2908 -3.00893
upperneck 16.1491 -21.7786 0.373219
head 5.07384 -10.7585 -0.0782026
rclavicle -1.19271e-014 3.18055e-015
rhumerus 73.7325 4.78315 -1505.66
rradius 34.3078
rwrist 1462.27
rhand -43.9861 55.385
rfingers 7.12502
rthumb -16.8078 26.0925
lclavicle -1.19271e-014 3.18055e-015
lhumerus 74.8458 12.8152 43.0818
lradius 123.542
lwrist 38.659
lhand -10.1159 25.5548
lfingers 7.12502
lthumb 15.8721 54.9243
rfemur -22.5568 -6.10611 17.4585
rtibia 35.3145
rfoot -16.2255 -16.9671
rtoes -8.8151
lfemur -23.4099 0.951843 -20.7067
ltibia 35.5262
lfoot -14.46 10.2119
ltoes -16.4661
3387
root -0.170467 17.7599 -1.51347 4.53026 1.26231 2.66653
lowerback 12.2165 3.75301 1.47933
upperback 7.38585 5.09838 0.442088
thorax 0.993347 2.59269 -0.926824
lowerneck 4.81522 -16.1683 -2.96327
upperneck 16.3797 -21.5908 0.193412
head 5.12154 -10.6657 -0.141025
rclavicle -2.10712e-014 2.38542e-014
rhumerus 73.4536 5.13489 -1505.95
rradius 33.6555
rwrist 1462.62
rhand -44.1754 55.5946
rfingers 7.12502
rthumb -16.9901 26.3177
lclavicle -2.10712e-014 2.38542e-014
lhumerus 74.8269 12.7018 43.2754
lradius 123.559
lwrist 38.6278
lhand -9.95 25.4952
lfingers 7.12502
lthumb 16.0318 54.8519
rfemur -22.8694 -6.20359 17.3746
rtibia 35.7021
rfoot -16.2264 -16.9719
rtoes -9.25225
lfemur -23.624 0.853296 -20.7521
ltibia 35.7721
lfoot -14.3564 10.0447
ltoes -16.8254
3388
root -0.168334 17.7458 -1.54067 4.5173 1.19715 2.69564
lowerback 12.355 3.79571 1.53331
upperback 7.54978 5.15954 0.470525
thorax 1.09597 2.62634 -0.936018
lowerneck 4.53966 -16.0848 -2.9521
upperneck 17.2482 -21.4707 0.0429273
head 4.87328 -10.5973 -0.198993
rclavicle 2.74323e-014 7.15625e-015
rhumerus 73.1669 5.39638 -1506.17
rradius 32.9951
rwrist 1462.93
rhand -44.4713 55.4333
rfingers 7.12502
rthumb -17.2749 26.181
lclavicle 2.74323e-014 7.15625e-015
lhumerus 74.9256 12.5203 43.4121
lradius 123.531
lwrist 38.5153
lhand -9.89946 25.3954
lfingers 7.12502
lthumb 16.0805 54.7481
rfemur -23.1867 -6.23668 17.3417
rtibia 36.0876
rfoot -16.3366 -16.8597
rtoes -9.06012
lfemur -23.8108 0.803458 -20.7347
ltibia 35.9766
lfoot -14.3073 9.96322
ltoes -17.9229
3389
root -0.16976 17.7326 -1.57107 4.52547 1.03235 2.70451
lowerback 12.5279 3.8781 1.58017
upperback 7.6858 5.27247 0.475505
thorax 1.15425 2.68549 -0.974912
lowerneck 4.43488 -16.0009 -2.92877
upperneck 17.671 -21.343 -0.0920225
head 5.00184 -10.5295 -0.26382
rclavicle -2.38542e-015 2.22639e-014
rhumerus 72.8892 5.64485 -1506.38
rradius 32.2307
rwrist 1463.24
rhand -44.5137 55.4415
rfingers 7.12502
rthumb -17.3156 26.1929
lclavicle -2.38542e-015 2.22639e-014
lhumerus 74.9917 12.2511 43.4745
lradius 123.531
lwrist 38.463
lhand -9.83478 25.3433
lfingers 7.12502
lthumb 16.1427 54.691
rfemur -23.5492 -6.15126 17.3517
rtibia 36.4725
rfoot -16.4388 -16.7705
rtoes -8.88485
lfemur -24.0098 0.814777 -20.6795
ltibia 36.163
lfoot -14.2788 9.86715
ltoes -18.6057
3390
root -0.168485 17.7194 -1.59699 4.55939 0.913205 2.78713
lowerback 12.6574 3.92516 1.61033
upperback 7.85576 5.33634 0.433133
thorax 1.27369 2.72168 -1.04326
lowerneck 4.23506 -15.9287 -2.82311
upperneck 17.9851 -21.2291 -0.222575
head 5.10348 -10.4653 -0.340238
rclavicle 1.82882e-014 3.97569e-015
rhumerus 72.8054 5.86561 -1506.74
rradius 31.2626
rwrist 1463.49
rhand -44.4032 55.6865
rfingers 7.12502
rthumb -17.2093 26.4285
lclavicle 1.82882e-014 3.97569e-015
lhumerus 75.0882 12.055 43.5685
lradius 123.528
lwrist 38.4425
lhand -9.62135 25.4521
lfingers 7.12502
lthumb 16.3483 54.7831
rfemur -23.9163 -6.17243 17.2736
rtibia 36.8699
rfoot -16.5149 -16.6701
rtoes -9.01323
lfemur -24.1855 0.792276 -20.7366
ltibia 36.3302
lfoot -14.3257 9.73781
ltoes -18.0437
